<?xml version="1.0" encoding="utf-8"?>
<!-- Generator: Adobe Illustrator 26.4.1, SVG Export Plug-In . SVG Version: 6.00 Build 0)  -->
<svg version="1.1" id="Layer_1" xmlns="http://www.w3.org/2000/svg" xmlns:xlink="http://www.w3.org/1999/xlink" x="0px" y="0px"
	 viewBox="0 0 102 29" style="enable-background:new 0 0 102 29;" xml:space="preserve">
<style type="text/css">
	.st0{fill:#FFA4A4;stroke:#000000;stroke-width:1.8;stroke-linecap:round;}
	.st1{fill:#7B9BEC;}
	.st2{fill:#FFA4A4;}
</style>
<g>
	<path d="M70.3,11.6c-0.2-0.2-0.4-0.2-0.6-0.2h-7h0l0,0l0,0.5l0,0l0-0.5c-0.2,0-0.4,0.1-0.6,0.2c-0.2,0.2-0.3,0.4-0.3,0.6
		c0,0.2,0.1,0.4,0.2,0.6c0.2,0.2,0.4,0.2,0.6,0.2h7h0l0,0l0-0.5h0l0,0.5c0.2,0,0.4-0.1,0.6-0.2c0.2-0.2,0.3-0.4,0.3-0.6
		C70.5,12.1,70.5,11.8,70.3,11.6z"/>
	<polygon points="27.9,9.5 28,9.4 28,9.3 27.5,9.3 	"/>
	<path d="M68.8,16.4c-0.1-0.1-0.1-0.2-0.2-0.2c-0.1-0.1-0.2-0.1-0.3-0.1c-0.2-0.1-0.4-0.1-0.7-0.1c-0.5-0.1-1.3-0.1-2.3-0.1h-2.3h0
		l0,0l0,0.5h0l0-0.5c-0.2,0-0.4,0.1-0.6,0.2c-0.2,0.2-0.3,0.4-0.3,0.6c0,0.2,0.1,0.4,0.2,0.6c0.2,0.2,0.4,0.2,0.6,0.2h2.3
		c1.2,0,2.1,0,2.6,0.1l0,0h0c0.2,0,0.4-0.1,0.6-0.2c0.1-0.1,0.2-0.3,0.3-0.5l0-0.1v-0.1C68.9,16.7,68.9,16.5,68.8,16.4L68.8,16.4z"
		/>
	<path d="M29.4,12L29.4,12l-0.2,0c0,0-0.1,0-0.2,0c-0.1,0-0.2,0-0.4,0c-0.5,0-1,0-1.5-0.1l0.9-2.4l-0.5-0.2l0,0l0,0l0.5,0
		c0-0.2-0.1-0.4-0.2-0.6c-0.2-0.2-0.4-0.3-0.6-0.3c-0.3,0-0.5,0.1-0.6,0.3l-0.1,0.1l0,0.1l-1,2.7c-1-0.2-1.7-0.3-2.2-0.4
		c-0.3-0.1-0.5-0.1-0.7-0.1c-0.1,0-0.2,0-0.2,0c0,0-0.1,0-0.2,0c-0.2,0-0.4,0.1-0.6,0.2c-0.1,0.1-0.2,0.3-0.3,0.5l0.5,0.1l0,0
		l-0.5-0.1l0,0.1v0.1c0,0.2,0.1,0.4,0.2,0.5l0.1,0.1l0.1,0.1c0.1,0,0.2,0.1,0.2,0.1c0.1,0,0.1,0,0.2,0.1c0.2,0,0.4,0.1,0.7,0.2
		c0.5,0.1,1.2,0.2,2,0.4c-0.5,1.3-1,2.4-1.5,3.5l0.4,0.2l0,0l0,0l-0.5,0c0,0.2,0.1,0.4,0.2,0.6c0.2,0.2,0.4,0.3,0.6,0.3h0l0,0
		L24,17.3h0l0.1,0.5l0.2,0l-0.1-0.5l0,0l0.1,0.5l0.2,0l0.1-0.1c0.2-0.3,0.5-0.8,0.8-1.5c0.3-0.6,0.6-1.5,1-2.5
		c0.8,0.1,1.6,0.2,2.3,0.2c0.3,0,0.6,0,0.8-0.1c0.1-0.1,0.2-0.1,0.3-0.3c0.1-0.1,0.1-0.3,0.1-0.5c0-0.2,0-0.4-0.2-0.5
		C29.7,12.2,29.5,12.1,29.4,12z M25.4,12.9L25.4,12.9L25.4,12.9L25.4,12.9L25.4,12.9z M26.1,13L26.1,13L26.1,13L26.1,13z"/>
	<polygon points="23.2,16.7 23.1,16.9 23.1,17 23.6,17 	"/>
</g>
<path class="st0" d="M99.9,7.9c-2,3.8-5.4,8.8-6.3,13.1c0.8,1-1.2-1.1-1.8-1.3c-0.7-0.3-1.2-1-1.9-1.3c-2.1-0.9-4.4-3.1-6-4.5
	c-3.3-2.9-3.3-6.1-2.4-10c0.4-1.8,6.4,2.3,7,2.6c0.9,0.5,0.9,1.4,1.4,0.4c0.5-1,0.6-1.9,1.4-2.9c0.7-0.8,2.6-2,3.7-2
	c1.5,0,4.4-0.1,5.5,1C101.6,4,100.4,6.9,99.9,7.9z"/>
<path class="st1" d="M13,18.1C13.2,18.1,13.2,18.1,13,18.1c0.8,0,0.8-1.2,0.2-1.2c-0.2,0-0.3,0-0.5,0c-0.2-0.3-0.3-0.8-0.3-1.2
	c-1-3-1.8-6.2-2.3-9.4c0,0,0,0,0-0.2c0-0.7-1-0.7-1.2,0C8.2,12.4,6,18.3,2.5,23.3C2,24,3,24.5,3.5,24c1.2-1.8,2.3-3.7,3.2-5.7h0.2
	c1.7,0,3.5-0.2,5.2-0.2c0.8,2.5,1.5,4.9,2.3,7.4c0.2,0.7,1.3,0.3,1.2-0.3C14.5,22.8,13.9,20.5,13,18.1z M7.2,17.3
	c1-2.5,1.8-5,2.3-7.5c0.5,2.2,1.2,4.4,1.8,6.4c0.2,0.3,0.2,0.7,0.3,1C10,17.1,8.5,17.3,7.2,17.3z"/>
<path class="st2" d="M50,5c0-0.6-0.9-0.9-1.1-0.4c-1.9,3-2.8,6.1-3.7,9.4c-1.3-3.1-2.8-6.1-4.4-9.1c-0.4-0.6-1.3-0.4-1.1,0.4
	c0.2,6.7-0.4,13.1-1.1,19.6c0,0.4,0.4,0.6,0.6,0.6c0.4,0,0.6-0.4,0.6-0.6c0.7-5.7,1.1-11.5,1.1-17.2c1.5,2.8,2.6,5.6,3.9,8.3
	c0.2,0.6,1.1,0.4,1.1-0.2c0.9-3,1.7-5.9,3-8.7c0,6.8,0.2,13.5,0.6,20.4c0,0.7,1.3,0.7,1.3,0C50.2,20.1,50,12.5,50,5z"/>
</svg>
