<?xml version="1.0" encoding="utf-8"?>
<!-- Generator: Adobe Illustrator 26.4.1, SVG Export Plug-In . SVG Version: 6.00 Build 0)  -->
<svg version="1.1" xmlns="http://www.w3.org/2000/svg" xmlns:xlink="http://www.w3.org/1999/xlink" x="0px" y="0px"
	 viewBox="0 0 159 113" style="enable-background:new 0 0 159 113;" xml:space="preserve">
<style type="text/css">
	.st0{fill:#FFA4A4;stroke:#000000;}
	.st1{fill:#7B9BEC;stroke:#000000;}
	.st2{fill:#FFA4A4;stroke:#000000;stroke-linecap:round;}
	.st3{fill-rule:evenodd;clip-rule:evenodd;}
	.st4{fill:#7B9BEC;}
	.st5{fill:#FFA4A4;}
</style>
<g id="Layer_1">
	<path class="st0" d="M137,3.5c-4.8-2.8-12.7,3.2-16,6.5v6l-2.5,3.5l1.5,1c6.4,0,14,7,17,10.5c1.3-1,4.4-3.5,6-5.5s1.7-6.2,1.5-8
		c-0.3-1.8-1.2-6.4-2-10C141.7,3.9,138.5,3.3,137,3.5z"/>
	<path class="st1" d="M47.5,83.5l-23.5-1c0,1.3-0.1,4.3-0.5,5.5s0.8,4.5,1.5,6h10l0.5-5H37c0,1.2,3,4.5,4.5,6c4,1.2,7.3-0.8,8.5-2
		L47.5,83.5z"/>
	<path class="st2" d="M113.7,11.1c-0.2,0.1-0.6,0.6-0.6,0.8c0,0,0.1,0.2,0.1,0.2c-0.1,0.1-0.1,0.2-0.2,0.3c0,0,0,0.1,0,0.1
		c-0.1,0.1-0.1,0.1-0.1,0.2c-0.1,0.3-0.1,0.7-0.1,1c-0.1,0.6-0.2,1.3-0.3,1.9l0,0c0,0.2-0.1,0.3-0.2,0.5c-0.2,0.4-0.3,0.8-0.5,1.3
		c-0.2,0.5-0.4,0.9-0.4,1.5c0,0.5,0.2,0.9,0.5,1.3c0.2,0.3,0.5,0.7,0.9,0.8c0.4,0.1,0.9,0,1.3,0c0.5-0.1,1-0.2,1.5-0.4
		c0.6-0.3,1.1-0.7,1.7-0.9c0.4-0.2,0.9-0.4,1.3-0.5c0.3-0.1,0.6-0.5,0.9-0.6c0.1,0,0.3-0.4,0.4-0.5c0.4-0.5,0.6-1.3,0.8-1.9
		c0.2-0.9,0.4-1.7,0.4-2.6c0-0.4-0.1-0.7-0.2-1.1c-0.1-0.5-0.2-1-0.5-1.4c-0.2-0.2-0.4-0.4-0.5-0.6c-0.2-0.2-0.4-0.4-0.6-0.6
		c-0.4-0.3-0.8-0.5-1.3-0.5c-0.6,0-1.1,0.1-1.7,0.2c-0.2,0-0.5,0.1-0.7,0.2c-0.3,0.1-0.6,0.4-0.8,0.5
		C114.3,10.5,114.1,10.8,113.7,11.1z"/>
	<path class="st0" d="M96.5,3c4.4-1.6,11.8,6.3,15,10.5c1.6,0,0,4.7-1,7C104.9,21.7,99.8,28,98,31l-1.5-0.5c-3,0-4-5.5-3-7
		c0.8-1.2,0.3-6.5,0-9C92.7,11.3,92.1,4.6,96.5,3z"/>
	<path class="st3" d="M99.2,2.4c3.7,1.1,9,5.1,11.4,8.6c1,1.5,1.3,1.5,2,0.1c0.7-1.2,2.9-2.7,4.2-2.7c0.5,0,1.4,0.3,2,0.6
		c1,0.6,1.2,0.6,2.9-1c5.9-5.6,12.8-7.4,18.2-4.8c2.5,1.2,3.8,3.4,4.3,7.5c0.2,1.9,0.7,4.5,1,5.9c0.5,1.9,0.5,3.1,0.1,4.9
		c-0.7,3-3.6,7.5-6,9l-1.9,1.2l1.2,3.4c0.7,1.9,1.6,4.3,2.1,5.4c1,2.4,1.1,4.6,0.3,7.5c-1,3.3-0.8,4.2,1.2,6.3
		c1.7,1.7,1.8,1.9,1.6,4.3c-0.1,1.4-0.4,2.7-0.6,2.9c-0.6,0.5-1.2-1.3-1.2-3.2c0-1.2-0.4-1.9-1.7-3.2c-1.4-1.4-1.8-2.1-1.9-3.6
		l-0.1-1.9l-1,1.8c-1.2,2.3-6.3,7.3-8.4,8.2l-1.6,0.7l2.2,1.9c4.6,4.1,11.7,8.1,16.7,9.5c2.6,0.7,3.3,0.7,5.2,0.2
		c2.6-0.8,4-0.7,5.2,0.5c0.7,0.7,0.8,1.1,0.4,2c-0.7,1.5-2.8,1.6-4.7,0.3c-0.7-0.5-1.6-0.8-2-0.6c-2.2,0.8-11.2-2.6-16.2-6.2
		c-1.8-1.3-3.8-2.7-4.6-3.2l-1.4-0.9l1.5,2.8c3.9,7.4,9,13.3,15.7,18.4c2.9,2.2,2.8,3.2-0.3,4.6c-2.5,1.1-9.7,2.8-12.6,2.9
		c-0.8,0-1.4,0.1-1.4,0.2c0,0.6,2.4,9.7,2.9,10.9c0.5,1.4,2.5,2.4,3.3,1.6c0.2-0.2-0.2-0.3-0.7-0.3c-1.6,0.1-1.7-0.6-0.3-1.3
		c2.4-1.1,5.1,1.8,2.8,3c-1.5,0.8-3.8,0.7-5.2-0.4c-1.3-1-2.3-3.8-4.1-10.7l-0.6-2.5l-6,0.4l-6,0.4l0.2,6c0.2,5,0.1,6.2-0.6,7.2
		c-1.1,1.6-3.3,1.8-4.5,0.4c-1.1-1.4-0.3-2.8,1.6-2.6c1.2,0.1,1.4,0,1.6-1.3c0.1-0.8,0-3.4-0.2-5.8l-0.5-4.4l-2-0.2
		c-5.3-0.6-13.3-3.3-11.1-3.8c1-0.2,6.9-9,8.6-12.7c1.6-3.5,2.9-8.4,2.8-10.6l-0.1-1.8l-2.3,2.1c-6.5,6-16,10.1-27.7,11.9
		c-1.2,0.2-2.8,0.8-3.6,1.3c-0.8,0.5-1.8,1-2.3,1c-1.1,0-5-2.3-5.4-3.3c-0.2-0.4-2.1-1.3-4.3-2c-5.3-1.8-13.1-6.2-17.8-10.2
		c-3.2-2.6-3.8-3-3.6-2.1c0.1,0.6,0.9,4.1,1.7,7.6c0.8,3.6,1.8,7.6,2.3,8.9c1,2.7,0.7,4.1-0.7,4.2c-0.7,0-0.9,0.3-0.7,0.8
		c0.2,0.4,0.8,2.5,1.4,4.6c1.3,4.4,0.9,5.5-1.7,6.2l-1.5,0.4l0.4,3c0.6,5,0.5,4.8,3,4.6c1.8-0.2,2.3-0.1,2.7,0.7
		c1.3,2.1-3.9,3.2-6,1.2c-0.9-0.8-2.3-7.7-1.9-8.9c0.2-0.5-0.1-0.6-1.6-0.3c-2.6,0.5-4.1-0.7-5.7-4.2c-1.1-2.5-1.3-2.7-1.5-1.7
		c-0.2,0.6-0.3,1.7-0.3,2.3c0,1.8-1.2,2.7-3.7,2.8l-2.2,0.1l0.1,3.7c0.1,2-0.1,4-0.3,4.3c-0.6,0.9-3.1,1.5-4.3,1.1
		c-2.6-0.8-1.7-3.3,1.1-2.9l1.6,0.2l-0.1-3.2c-0.1-3.1-0.1-3.2-1.4-3.1c-1.9,0.1-3-0.6-3.7-2.2c-0.7-1.6-0.8-5.2-0.4-8
		c0.3-1.9,0.3-1.9-1.1-1.9c-2.3,0.1-2.3-1-0.2-4.9c2.5-4.7,7.4-17.4,7.3-19.1c0-0.1-1.1,0.7-2.4,1.8c-4.6,4-12.6,7.9-19.1,9.3
		c-3.7,0.8-5.4,0.5-5.4-1c0-1.1,0.1-1.1,3.9-1.3c3-0.1,4.7-0.5,7.1-1.4c5.2-2,9.7-4.8,13.1-8c1.8-1.7,3.2-2.9,3.2-2.7
		c0,0.2,0.3,0.2,0.6-0.1c0.4-0.4,0-1-1.4-2.5c-2.2-2.2-4.2-6.3-4.8-10.1c-0.3-1.9-0.7-2.7-1.9-3.7c-1.4-1.1-1.5-1.4-1.2-3.1
		c0.2-1.1,0.2-3.3,0.1-5c-0.3-5.3,1.3-10.3,4.9-15.1c1.1-1.4,2.9-3.3,4.1-4.1l2.1-1.5l-1.1-1c-1.6-1.5-1.2-2.7,1-2.6
		c1.1,0.1,2.4-0.3,3.5-1c2.3-1.4,3.3-0.8,2.2,1.4l-0.7,1.5l4.5-0.1c3.9-0.1,4.8,0,7.2,1c3.4,1.5,6.7,4.5,10.3,9.1
		c1.5,2,4,4.6,5.4,5.9c3.1,2.6,3.2,3.7,0.4,3.8c-1,0-2.5-0.2-3.5-0.5c-2-0.7-2-0.7-0.7,2.5c1.5,3.7,2.5,8.3,2.2,10.8
		c-0.2,2.2-0.9,3.6-1.7,3.6c-0.2,0-1.6-1.1-3.1-2.4L55,40.6l-0.8,2.5c-1.7,5.3-4.5,9.3-8.5,12c-0.9,0.6-1,0.9-0.6,2.5
		c0.9,3.1,8.9,9.4,17.6,13.8c3.6,1.9,13.1,5,13.7,4.5c0.4-0.4,3.7,0.2,3.8,0.6c0,0.2-0.8,0.5-1.7,0.7c-0.9,0.2-1.7,0.5-1.7,0.8
		c0,0.6,0.8,0.5,2.3-0.3c0.7-0.4,3.1-1,5.2-1.3c10.5-1.8,20.4-6.2,25.8-11.7c1-1,2.1-1.9,2.4-1.9c0.3,0,0.5-0.3,0.5-0.6
		c0-0.3-1.2-0.9-2.6-1.3c-1.4-0.4-3.2-1.3-3.9-2c-0.8-0.7-1.6-1.3-1.9-1.2c-0.3,0-1.2-0.6-2-1.3c-1.2-1-1.5-1.1-1.4-0.5
		c0,0.4-0.4,2-1,3.4c-1,2.5-1.1,2.7-0.2,4.5c0.5,1,1,2.3,1.2,2.8c0.3,0.6-0.1,0.5-1.4-0.6c-2.5-2-2.9-3.8-1.6-7
		c1.2-2.9,1.1-3.8-1.3-9.8c-2.4-6.1-2.5-12-0.4-17c0.2-0.6-0.1-0.9-1.2-1.4c-1-0.4-1.8-1.3-2.4-2.7c-0.9-2-0.9-3.3-0.1-8.4
		c0.2-1.3,0.1-3.2-0.4-5.2c-1-4.2-1-5.4,0-8.4C93.8,2.2,95.4,1.3,99.2,2.4z M99.6,4.5c2.7,1,7.2,4.7,9.7,7.8c1.6,2,1.9,2.7,1.8,4.3
		l-0.1,1.9l-3.2-1.5c-4.6-2.2-8.4-5-10.5-7.6C93.5,4.6,94.5,2.5,99.6,4.5z M136.5,3.8c0,0.6-3.8,5.8-5.5,7.4
		c-1.9,1.8-6.9,4.6-8.2,4.7c-0.6,0-0.8-0.5-1-2.7c-0.2-2.7-0.2-2.7,2.1-4.6c3.1-2.7,6.3-4.2,9.7-4.7C135.2,3.7,136.5,3.7,136.5,3.8z
		 M138.9,4.6c1.7,0.5,3.2,2.9,3.2,5.4c0,1.2,0.5,3.6,0.9,5.4c0.5,1.9,0.8,4.1,0.6,5.1c-0.3,2.5-2.2,5.7-4.7,8.2
		c-1.9,1.9-2.2,2-2.7,1.2c-1.4-2.2-5.1-5.5-7.8-7c-2.6-1.5-4.2-2.1-8.1-3c-1.3-0.3,0.4-2,2.1-2.1c4.6-0.2,12.9-6.9,14.6-11.9
		C137.7,4.4,137.9,4.3,138.9,4.6z M35.1,10.4c-0.1,1.3,0,1.4,1.1,1.2c3.6-0.6,9.1-0.5,10.9,0.2c3.1,1.3,6.3,4.1,9.6,8.2
		c1.7,2.2,3.9,4.7,4.9,5.6l1.8,1.7l-2.1-0.6c-2.6-0.7-3.9-0.7-4.2,0c-0.1,0.3,0.4,2.2,1.2,4.1c1.5,3.7,3,11.1,2.4,11.7
		c-0.2,0.2-1.7-1-3.4-2.6c-1.7-1.6-5.4-4.2-8.3-5.9c-5.9-3.4-8.2-5.5-10.2-8.9c-1.8-3.1-2.8-3.1-4-0.2c-0.6,1.5-2.3,3.4-5.1,6.1
		c-3.5,3.3-4.2,3.8-4.7,3.2c-0.3-0.4-0.8-0.7-1.1-0.7c-0.9,0-1.4-3.2-0.9-6.2C23.8,21.9,27,17,33,12.2c1.1-0.9,1.2-1.2,0.8-1.9
		c-0.4-0.7-0.3-0.9,0.5-1.1C35.1,9,35.2,9.1,35.1,10.4z M95.2,9.8c2.1,2.8,6.7,6.3,11.4,8.5l4,1.9l-1.9,0.6c-2.8,0.9-7.3,4-9.4,6.7
		c-1,1.3-2.1,2.3-2.4,2.2c-0.3-0.1-1-0.8-1.7-1.6c-1-1.3-1.2-1.9-1-3.8c0.6-6.4,0.6-8.2-0.1-11c-0.4-1.6-0.7-3.6-0.6-4.2
		C93.7,7.8,93.8,7.8,95.2,9.8z M118.6,11c1.8,1.3,2,4,0.4,6.3c-1.1,1.6-1.6,2-2.8,2c-0.8,0-2,0.2-2.6,0.4c-1.1,0.3-1.1,0.3-0.9-2.1
		c0.3-3.5,1.6-6.2,3.2-6.8C117.5,10.1,117.3,10.1,118.6,11z M119.9,21.5c5.8,0.8,12,5,15.1,9.9c1.7,2.7,1.8,3.8,0.2,2.5
		c-1.1-0.8-7.2-3.2-8.2-3.2c-1.2,0-8.5-3.2-9.7-4.4c-0.7-0.7-1.3-1.8-1.5-3.1C115.3,20.9,115.5,20.8,119.9,21.5z M113.6,23
		c0.1,4,3.9,6.7,12.6,9.3c5.6,1.7,7.9,2.7,10.1,4.7c1.2,1.1,1.4,1.7,1.5,4.2c0.3,7.4-3.7,13.8-10.8,17.2c-2.9,1.4-3.5,1.5-8.3,1.7
		c-4.8,0.2-5.4,0.1-8.8-1.3c-3.7-1.5-8.2-5-9.9-7.9c-0.7-1.2-0.7-1.4-0.1-2.7c0.4-0.7,2.5-2.8,4.7-4.6c7.3-6,9-9.1,8.8-15.7
		c-0.1-2.7-0.4-4.7-0.8-5.3c-0.6-0.8-0.5-1,0.1-1C113.3,21.6,113.6,22.1,113.6,23z M111.2,24.2c1,2.9,0.6,7.4-0.8,10.4
		c-0.7,1.5-2.4,3.5-4.2,5.2c-6.2,5.7-8,7.3-8.2,7.1c-0.6-0.5-1.3-7.1-0.9-9.5c0.8-5.4,4.5-10.9,9.1-13.4
		C110.2,21.9,110.4,21.9,111.2,24.2z M37.2,25.8c0,0.5,0.9,2,2,3.3c1.9,2.2,3.7,3.6,10.6,7.6c3.4,2,3.6,3,2,7.5
		C47.9,54.9,37.4,58.8,30,52.5c-1.9-1.6-3.6-5.3-4.4-9.6c-0.5-2.5-0.9-3.3-1.9-3.9c-1.1-0.7-1.7-2.4-1-3.1c0.2-0.2,0.7,0.2,1.3,0.8
		c1.3,1.4,2.1,1.3,3.2-0.3c0.5-0.7,2.3-2.5,4-3.9c1.7-1.4,3.8-3.7,4.6-5.1C36.7,25.7,37.2,25.2,37.2,25.8z M33.5,38.5
		c0.4,0.8-0.1,1.6-1,1.6c-1,0-1.4-0.8-0.8-1.6C32.5,37.7,33.2,37.7,33.5,38.5z M44.7,38.6c0.4,0.9-1.1,1.5-1.6,0.7
		c-0.2-0.3-0.3-0.8-0.2-1C43.2,37.7,44.4,37.9,44.7,38.6z M128.9,41c0,0.6-0.3,0.9-1,1c-0.7,0-1-0.2-0.9-0.8
		C127.3,40,128.9,39.8,128.9,41z M114.8,42.6c0,0.9-1.4,1.4-2,0.7c-0.6-0.8-0.2-1.3,1-1.4C114.3,41.9,114.7,42.2,114.8,42.6z
		 M33.3,47.2c2.3,1.2,6.4,1.3,7.9,0.2c1-0.8,2.6-1,2.7-0.4c0,0.2-0.6,1-1.5,1.6c-1.2,1-2,1.2-4.4,1.3c-3.1,0.1-6.6-1-7.2-2.3
		C30.2,46.3,31.3,46.1,33.3,47.2z M131.1,48.7c0.1,1.9-4.3,5.5-7.9,6.6c-3.5,1-9.1-0.2-11.5-2.4c-2.1-2-1.2-2.2,2.4-0.6
		c2.9,1.3,4.1,1.5,6.3,1.5c3.3-0.1,6.6-1.7,8-4C129.4,48.3,131.1,47.6,131.1,48.7z M33.4,56.7c1.9,0.7,6.4,0.8,8.4,0.2
		c1.3-0.4,1.3-0.4,1.7,2.7c0.6,4.4,3.1,15.5,4.3,19.4l1,3.3l-5.7-0.1c-15.1-0.3-20.3-0.5-20.5-0.6c-0.1-0.1,0.8-2.2,2.1-4.7
		c2.5-5.1,5.7-14.1,6.5-18.1l0.5-2.6L33.4,56.7z M125.8,61.9c-0.3,1.4,5.3,10.9,9.3,15.7c1.8,2.1,4.9,5.2,7,6.9l3.7,3l-1.4,0.6
		c-2.5,1-10,2.5-16,3.2c-7.3,0.9-13.2,0.7-20-0.6l-5.3-1l2.2-2.2c4.9-4.7,9.3-14.6,9.5-21.2l0.1-3.9l4.5-0.4
		c2.5-0.2,4.9-0.5,5.5-0.7C125.9,61,126.1,61,125.8,61.9z M155.1,73.4c-0.3,0.1-0.9,0.2-1.2,0c-0.3-0.1-0.1-0.2,0.6-0.2
		C155.2,73.2,155.5,73.3,155.1,73.4z M75,77.2c-0.2,0.3-0.5,0.4-0.8,0.2c-0.7-0.4-0.6-0.6,0.3-0.7C74.9,76.7,75.1,76.9,75,77.2z
		 M31.3,83.6c3.4,0,8.3,0.2,10.9,0.3c4.4,0.2,4.8,0.2,4.8,1.1c0,0.5,0.5,2.5,1.1,4.3c0.8,2.5,0.9,3.5,0.5,3.9
		c-0.3,0.3-2.1,0.7-3.9,0.8l-3.4,0.3L39.7,91c-1.5-3.1-1.8-3.3-3.2-3.4c-1.7-0.1-1.8,0.1-2.2,3.7L34,93.4l-3.8,0.1
		c-2.1,0.1-4.1-0.1-4.5-0.3c-0.9-0.5-1.4-5.2-0.9-7.9l0.3-1.8L31.3,83.6z M115,106.4c-0.3,0.1-0.8,0.1-0.9,0
		c-0.2-0.1,0.1-0.3,0.6-0.3C115.3,106.2,115.4,106.3,115,106.4z"/>
</g>
<g id="Layer_2">
	<path class="st4" d="M38.8,72C38.9,72,38.9,72,38.8,72c0.5,0,0.5-0.7,0.1-0.7c-0.1,0-0.2,0-0.3,0c-0.1-0.2-0.2-0.5-0.2-0.7
		c-0.6-1.8-1.1-3.7-1.4-5.6c0,0,0,0,0-0.1c0-0.4-0.6-0.4-0.7,0c-0.4,3.7-1.7,7.2-3.8,10.2c-0.3,0.4,0.3,0.7,0.6,0.4
		c0.7-1.1,1.4-2.2,1.9-3.4c0,0,0.1,0,0.1,0c1,0,2.1-0.1,3.1-0.1c0.5,1.5,0.9,2.9,1.4,4.4c0.1,0.4,0.8,0.2,0.7-0.2
		C39.7,74.8,39.3,73.4,38.8,72z M35.3,71.5c0.6-1.5,1.1-3,1.4-4.5c0.3,1.3,0.7,2.6,1.1,3.8c0.1,0.2,0.1,0.4,0.2,0.6
		C37,71.4,36.1,71.5,35.3,71.5z"/>
	<path class="st5" d="M124.8,72.6c0-0.3-0.5-0.5-0.6-0.2c-1,1.6-1.5,3.3-2,5.1c-0.7-1.7-1.5-3.3-2.4-4.9c-0.2-0.3-0.7-0.2-0.6,0.2
		c0.1,3.6-0.2,7.1-0.6,10.6c0,0.2,0.2,0.3,0.3,0.3c0.2,0,0.3-0.2,0.3-0.3c0.4-3.1,0.6-6.2,0.6-9.3c0.8,1.5,1.4,3,2.1,4.5
		c0.1,0.3,0.6,0.2,0.6-0.1c0.5-1.6,0.9-3.2,1.6-4.7c0,3.7,0.1,7.3,0.3,11c0,0.4,0.7,0.4,0.7,0C124.9,80.8,124.8,76.7,124.8,72.6z"/>
</g>
</svg>
